# ProBuilder 4.4.0
# https://unity3d.com/unity/features/worldbuilding/probuilder
# 1/12/2021 2:43:09 PM

mtllib ./Arch.mtl
o Arch

g Arch (1)
v -0.5122291 -0.2317005 -0.1108341
v -0.4388544 0.2317003 -0.265281
v -0.5122291 -0.2317005 0.3891659
v -0.4388544 0.2317003 0.2347191
v 0.5122291 -0.0772334 -0.389165
v 0.4877709 -0.2317005 -0.265281
v 0.5122291 -0.07723346 0.1108353
v 0.4877709 -0.2317006 0.2347191
v -0.4388325 0.2317443 -0.2673709
v 0.5122578 -0.07717613 -0.391265

vt -0.1108341 -0.3089576
vt -0.265281 0.1602163
vt 0.3891659 -0.3089576
vt 0.2347191 0.1602162
vt 0.389165 0.003825197
vt 0.265281 -0.1525663
vt -0.1108353 0.003825136
vt -0.2347192 -0.1525664
vt -0.5122291 0.3891659
vt 0.4877709 0.2347191
vt -0.5122291 -0.1108341
vt 0.4877709 -0.265281
vt -0.5656281 -0.3110588
vt -0.4695389 0.1734458
vt 0.4462285 -0.311059
vt 0.4893094 -0.1286694
vt 0.369293 0.3216299
vt 0.4750176 -0.1608639
vt -0.5856313 -3.247945E-05
vt -0.5343725 -0.1805301
vt 0.4889683 0.2347109
vt -0.5110317 0.1108271
vt 0.488961 -0.2673792
vt -0.5110412 -0.3912733

vn -0.9876952 0.1563914 0
vn 0.9876952 -0.1563914 -1.86433E-08
vn -1.341105E-07 -1 0
vn 0.1459885 0.2919214 0.945235
vn 0.2159195 0.4317568 0.8571861
vn 0.2858505 0.5715922 0.7691371
vn -0.2124735 -0.2785268 -0.9366311
vn -0.1667517 -0.4439225 -0.8601328
vn -0.12103 -0.6093181 -0.7836345
vn 0.3089452 0.9510798 9.682103E-05

usemtl HelixPart
f 3/3/1 4/4/1 2/2/1 1/1/1
f 7/7/2 8/8/2 6/6/2 5/5/2
f 1/11/3 6/12/3 8/10/3 3/9/3
f 8/15/5 7/16/6 4/14/5 3/13/4
f 5/19/8 6/20/9 1/18/8 2/17/7
f 10/24/10 9/23/10 4/21/10 7/22/10

